<?xml version="1.0" encoding="UTF-8" standalone="no"?>
<!-- Created with Inkscape (http://www.inkscape.org/) -->

<svg
   xmlns:dc="http://purl.org/dc/elements/1.1/"
   xmlns:cc="http://creativecommons.org/ns#"
   xmlns:rdf="http://www.w3.org/1999/02/22-rdf-syntax-ns#"
   xmlns:svg="http://www.w3.org/2000/svg"
   xmlns="http://www.w3.org/2000/svg"
   version="1.1"
   width="299.99832"
   height="65.200996"
   id="svg2"
   xml:space="preserve"><metadata
     id="metadata8"><rdf:RDF><cc:Work
         rdf:about=""><dc:format>image/svg+xml</dc:format><dc:type
           rdf:resource="http://purl.org/dc/dcmitype/StillImage" /><dc:title></dc:title></cc:Work></rdf:RDF></metadata><defs
     id="defs6"><clipPath
       id="clipPath16"><path
         d="m 28.694,712.743 141.932,0 0,-179.532 -141.932,0 0,179.532 z"
         id="path18" /></clipPath><clipPath
       id="clipPath30"><path
         d="m 28.694,856.088 177.238,0 0,-143.697 -177.238,0 0,143.697 z"
         id="path32" /></clipPath><clipPath
       id="clipPath44"><path
         d="m 170.272,712.743 142.107,0 0,-179.532 -142.107,0 0,179.532 z"
         id="path46" /></clipPath><clipPath
       id="clipPath58"><path
         d="m 205.578,856.088 177.767,0 0,-143.697 -177.767,0 0,143.697 z"
         id="path60" /></clipPath><clipPath
       id="clipPath72"><path
         d="m 312.027,712.743 142.284,0 0,-179.532 -142.284,0 0,179.532 z"
         id="path74" /></clipPath><clipPath
       id="clipPath86"><path
         d="m 382.993,856.088 177.59,0 0,-143.697 -177.59,0 0,143.697 z"
         id="path88" /></clipPath><clipPath
       id="clipPath100"><path
         d="m 453.958,712.743 142.108,0 0,-179.532 -142.108,0 0,179.532 z"
         id="path102" /></clipPath><clipPath
       id="clipPath114"><path
         d="m 560.23,856.088 177.767,0 0,-143.697 -177.767,0 0,143.697 z"
         id="path116" /></clipPath><clipPath
       id="clipPath128"><path
         d="m 595.713,712.743 142.284,0 0,-179.532 -142.284,0 0,179.532 z"
         id="path130" /></clipPath><clipPath
       id="clipPath142"><path
         d="m 737.644,712.743 141.754,0 0,-179.532 -141.754,0 0,179.532 z"
         id="path144" /></clipPath><clipPath
       id="clipPath156"><path
         d="m 737.644,856.088 141.754,0 0,-143.697 -141.754,0 0,143.697 z"
         id="path158" /></clipPath></defs><g
     transform="matrix(0,1.25,1.25,0,-1258.4471,-942.97514)"
     id="g10"><g
       transform="matrix(1.704657,0,0,1.704657,755.2904,1159.3415)"
       id="g180"><path
         d="m 0,0 0,3.27 2.111,0 C 1.895,3.6 1.655,3.94 1.411,4.3 1.098,4.77 0.777,5.28 0.491,5.86 c -0.578,1.17 -1.025,2.61 -1.025,4.51 0,6.31 4.525,6.7 8.073,6.7 l 0.988,0 0,7.55 -7.173,0 0,3.28 7.173,0 0,6.39 c -6.617,0.74 -9.022,4.55 -9.022,9.31 0,4.89 3.139,7.36 9.181,7.68 l 2.611,0 0,-13.85 c 6.3,0.24 7.346,3.33 7.346,7.62 0,1.49 -0.344,4.33 -0.601,5.07 l -0.063,0.18 2.765,0.6 0.054,-0.13 c 0.28,-0.68 0.737,-4.11 0.737,-6.63 0,-6.03 -2.42,-9.86 -10.238,-9.97 l -0.001,-6.27 9.896,0 0,-3.28 -9.896,0 0,-7.55 8.541,0 0,-3.24 -11.686,0 C 4.86,13.83 2.356,13.34 2.356,9.64 2.356,8.46 2.893,7.09 3.517,5.88 4.106,4.73 4.762,3.76 5.071,3.27 l 6.225,0 0,-10.57 9.894,0 0,-3.16 -2.308,0 c 0.502,-0.78 1.145,-1.73 1.686,-2.86 0.604,-1.26 1.08,-2.75 1.08,-4.5 0,-6.01 -4.603,-6.55 -8.15,-6.55 l -2.202,0 0,-7.07 c 0.918,1.09 2.16,1.83 3.998,1.83 4.927,0 6.279,-4.35 6.279,-7.77 0,-2.83 -0.612,-5.84 -0.894,-6.48 l -0.052,-0.12 -2.872,0.47 0.054,0.18 c 0.34,1.14 0.87,3.8 0.87,5.42 0,3.24 -1.176,5.1 -3.003,5.1 -1.322,0 -2.113,-0.75 -2.732,-1.91 -0.314,-0.58 -0.578,-1.25 -0.838,-1.96 -0.26,-0.71 -0.514,-1.44 -0.81,-2.16 l 0,-11.83 5.602,0 c 1.55,0 1.821,0.92 1.821,1.78 l 0,0.18 2.69,-0.21 0.01,-0.15 c 0.108,-1.67 -0.257,-4.33 -2.537,-4.69 0.147,-0.19 0.332,-0.42 0.532,-0.68 0.293,-0.39 0.622,-0.85 0.93,-1.42 0.619,-1.16 1.152,-2.72 1.152,-4.87 0,-3.76 -2.135,-6.05 -6.049,-6.05 -1.849,0 -3.191,0.6 -4.151,1.54 l 0,-6.76 11.056,0 c 5.605,0 7.713,-4.63 7.713,-8.91 0,-3.1 -0.657,-5.96 -0.89,-6.78 l -0.042,-0.15 -2.629,0.48 0.038,0.17 c 0.19,0.84 0.612,3.79 0.612,5.43 0,3.75 -0.789,6.5 -5.418,6.5 l -1.904,0 c 0.892,-1.25 1.646,-2.86 1.646,-4.84 0,-4.37 -1.302,-9.22 -10.4,-9.4 l -0.508,-0.01 c -0.671,0 -1.311,0.04 -1.92,0.12 -5.922,0.75 -8.952,4.98 -8.952,9.98 0,0.78 0.037,1.59 0.103,2.4 l 0.011,0.16 2.861,0 -0.015,-0.18 c -0.052,-0.67 -0.086,-1.45 -0.086,-2.42 0,-4.21 2.66,-6.16 6.126,-6.66 0.639,-0.09 1.306,-0.14 1.985,-0.14 l 0.39,0 c 5.364,0.12 7.57,2.47 7.57,6.34 0,2.08 -1.319,3.75 -2.03,4.62 l -8.088,0 0,21.5 -2.323,0 c -3.365,0 -3.846,-1.49 -3.846,-5.22 0,-0.94 0.197,-1.99 0.42,-2.92 0.225,-0.94 0.474,-1.74 0.569,-2.16 l 0.037,-0.16 -2.586,-0.69 -0.057,0.13 c -0.391,0.9 -1.237,3.56 -1.237,6.64 0,4.22 1.278,7.5 5.744,7.5 l 3.28,0 0,8.11 c -0.786,-0.47 -1.763,-0.75 -2.974,-0.75 -3.987,0 -6.011,3.13 -6.011,7.23 0,2.39 0.577,4.51 0.813,5.11 l 0.055,0.13 2.71,-0.65 -0.042,-0.16 c -0.114,-0.44 -0.305,-1.04 -0.467,-1.82 -0.161,-0.78 -0.292,-1.74 -0.292,-2.91 0,-2.58 1.14,-3.69 2.775,-3.69 1.727,0 2.646,1.27 3.434,3.01 l 0,15.93 4.36,0 c 3.303,0 5.87,0.35 5.87,4.03 0,1.99 -2.174,5.58 -2.829,6.64 l -12.416,0 0,3.16 5.015,0 0,7.3 L 0,0 z m 18.757,-60.04 c 0,2.05 -2.371,5.69 -2.75,6.25 l -4.711,0 0,-6.06 c 0.435,-2.74 1.799,-3.81 3.883,-3.81 2.675,0 3.578,1.51 3.578,3.62 z m -10.23,97.55 0,10.32 C 4.486,47.74 2.09,46.12 2.09,43.14 c 0,-2.86 2.045,-5.16 6.437,-5.63"
         id="path182"
         style="fill:#707274;fill-opacity:1;fill-rule:nonzero;stroke:none" /></g></g></svg>