<?xml version="1.0" encoding="UTF-8"?>
<svg id="Ebene_1" data-name="Ebene 1" xmlns="http://www.w3.org/2000/svg" version="1.1" viewBox="0 0 206.4 193">
  <defs>
    <style>
      .cls-1 {
        fill: #fa3232;
      }

      .cls-1, .cls-2, .cls-3, .cls-4 {
        stroke-width: 0px;
      }

      .cls-2 {
        fill: #000;
      }

      .cls-5 {
        isolation: isolate;
      }

      .cls-3 {
        fill: #fff;
      }

      .cls-4 {
        fill: #ebebdf;
      }
    </style>
  </defs>
  <path class="cls-4" d="M57.1,7.8c83-33.2,161.3,45,128.1,128.1-9,22.4-26.8,40.3-49.3,49.3C52.9,218.4-25.4,140.1,7.8,57.1,16.8,34.7,34.7,16.8,57.1,7.8Z"/>
  <g>
    <rect class="cls-2" x="8.2" y="30" width="118.6" height="80.9"/>
    <polyline class="cls-2" points="80.3 103.5 33.3 131.5 33.3 84.4"/>
  </g>
  <g>
    <rect class="cls-1" x="87.8" y="64.6" width="118.6" height="80.9"/>
    <polyline class="cls-1" points="134.3 138.1 181.3 166.1 181.3 119"/>
  </g>
  <g>
    <path class="cls-3" d="M117.8,99.6c7.9-6,16.9,2.9,10.8,10.8-7.9,6-16.9-2.9-10.8-10.8Z"/>
    <path class="cls-3" d="M165.6,99.6c7.9-6,16.9,2.9,10.8,10.8-7.9,6-16.9-2.9-10.8-10.8Z"/>
    <path class="cls-3" d="M141.7,99.6c7.9-6,16.9,2.9,10.8,10.8-7.9,6-16.9-2.9-10.8-10.8Z"/>
  </g>
  <g class="cls-5">
    <g class="cls-5">
      <path class="cls-3" d="M81,55.8c0,2.4-.5,4.7-1.6,6.7-1.1,2.1-2.5,4-4.3,5.7-1.8,1.8-3.9,3.5-6.2,5.1-2.3,1.6-4.8,3.2-7.3,4.8l-5-7.2c1.8-1.4,3.5-2.6,5.2-3.8,1.6-1.2,3.1-2.3,4.3-3.5s2.2-2.3,3-3.5c.8-1.2,1.1-2.4,1.1-3.8s-.6-3.3-1.8-4.3c-1.2-1-2.8-1.4-4.8-1.4s-3.9.3-5.5.8c-1.6.5-3.2,1.2-4.7,2.1l-2.8-7.8c2-1.2,4.2-2.1,6.6-2.8,2.4-.7,5-1,8-1s4.2.3,6.2.9c1.9.6,3.6,1.4,5,2.6,1.4,1.2,2.6,2.6,3.4,4.3.8,1.7,1.2,3.7,1.2,6ZM56.5,89.3c0-1.7.5-3.1,1.6-4.3,1.1-1.2,2.6-1.8,4.6-1.8s3.5.6,4.6,1.8c1.1,1.2,1.6,2.7,1.6,4.3s-.5,3.1-1.6,4.4c-1.1,1.2-2.6,1.9-4.6,1.9s-3.5-.6-4.6-1.9c-1.1-1.2-1.6-2.7-1.6-4.4Z"/>
    </g>
  </g>
</svg>