<?xml version="1.0" encoding="UTF-8"?>
<svg id="Ebene_1" data-name="Ebene 1" xmlns="http://www.w3.org/2000/svg" version="1.1" viewBox="0 0 111.9 19.3">
  <defs>
    <style>
      .cls-1 {
        fill: #fa3232;
        stroke-width: 0px;
      }
    </style>
  </defs>
  <polygon class="cls-1" points="10.6 .1 13.6 6.5 20.6 7.4 15.4 12.2 16.8 19.2 10.6 15.8 4.4 19.2 5.7 12.2 .6 7.4 7.6 6.5 10.6 .1"/>
  <polygon class="cls-1" points="33.3 .1 36.3 6.5 43.3 7.4 38.1 12.2 39.5 19.2 33.3 15.8 27.1 19.2 28.4 12.2 23.2 7.4 30.3 6.5 33.3 .1"/>
  <polygon class="cls-1" points="55.9 .1 58.9 6.5 66 7.4 60.8 12.2 62.1 19.2 55.9 15.8 49.7 19.2 51.1 12.2 45.9 7.4 52.9 6.5 55.9 .1"/>
  <polygon class="cls-1" points="78.6 .1 81.6 6.5 88.6 7.4 83.5 12.2 84.8 19.2 78.6 15.8 72.4 19.2 73.8 12.2 68.6 7.4 75.6 6.5 78.6 .1"/>
  <polygon class="cls-1" points="101.3 .1 104.3 6.5 111.3 7.4 106.1 12.2 107.5 19.2 101.3 15.8 95.1 19.2 96.4 12.2 91.3 7.4 98.3 6.5 101.3 .1"/>
</svg>