<?xml version="1.0" encoding="UTF-8"?>
<svg id="Ebene_1" data-name="Ebene 1" xmlns="http://www.w3.org/2000/svg" version="1.1" viewBox="0 0 239.6 119.5">
  <defs>
    <style>
      .cls-1 {
        fill-rule: evenodd;
      }

      .cls-1, .cls-2 {
        fill: #ebebdf;
        stroke-width: 0px;
      }
    </style>
  </defs>
  <polyline class="cls-1" points="174.4 25.1 179.2 1 203.5 1 198.9 25.1 174.4 25.1"/>
  <polygon class="cls-2" points="174.4 25.1 179.2 1 203.5 1 198.9 25.1 174.4 25.1 174.4 25.1"/>
  <path class="cls-1" d="M204.8,19.8s15.1,8,21.8,27.2h-6.7s-2.4-10.2-16.2-20.7l1.2-6.5"/>
  <path class="cls-2" d="M204.8,19.8s15.1,8,21.8,27.2h-6.7s-2.4-10.2-16.2-20.7l1.2-6.5h0Z"/>
  <polyline class="cls-1" points="215.4 52 239.6 52 234.8 76.1 210.6 76.1 215.4 52"/>
  <polygon class="cls-2" points="215.4 52 239.6 52 234.8 76.1 210.6 76.1 215.4 52 215.4 52"/>
  <path class="cls-1" d="M225.7,81.2s-7.1,24-35.5,30.8c0,0-4.8,1.5-13.5,1.3l1.3-6.2s17.9,1.1,30.8-11.7c0,0,5.9-4.6,10.3-14.2h6.7"/>
  <path class="cls-2" d="M225.7,81.2s-7.1,24-35.5,30.8c0,0-4.8,1.5-13.5,1.3l1.3-6.2s17.9,1.1,30.8-11.7c0,0,5.9-4.6,10.3-14.2h6.7Z"/>
  <polyline class="cls-1" points="150.6 94.2 175.3 94.2 170.4 118.5 145.8 118.5 150.6 94.2"/>
  <polygon class="cls-2" points="150.6 94.2 175.3 94.2 170.4 118.5 145.8 118.5 150.6 94.2 150.6 94.2"/>
  <path class="cls-1" d="M12.6,47.8h-7.1L0,76.2h7.1l5.4-28.4h0ZM15.1,39.4c0-2.2-1.8-4.1-4.2-4.1s-4.8,2-4.9,4.6c0,2.2,1.7,4.2,4.2,4.2s4.8-2,4.9-4.7"/>
  <path class="cls-1" d="M35.5,47.8h-6.7l1.9-10.2-7.4,1.5-1.7,8.7h-4.8l-1.1,5.7h4.9l-2.6,13.6c-1.3,6.8.4,9.7,6.5,9.7s3.9-.3,5.8-.7l.7-5.8c-1,.2-2.1.4-3.5.4-2.3,0-2.8-.9-2.2-4.3l2.4-12.8h6.7l1.1-5.7"/>
  <path class="cls-1" d="M75.8,53.4l-.3,1.8c-1.1,6-6.2,15.3-10.3,15.3s-2.2-1.1-2.2-3.9c0-5.9,3-13.6,9.6-13.6s2.3.2,3.2.4h0ZM83.9,48.2c-3.2-.6-6.6-.9-10.1-.9-12.5,0-18.2,9.9-18.2,20.7s2.3,8.9,6.7,8.9,9.6-5.5,11.9-9.7h.1c-1.3,3.9-2.2,6.8-2.7,9h7.1c1.2-7.5,2.7-14.9,5.2-28.1"/>
  <path class="cls-1" d="M106.7,53.4l-.3,1.8c-1.1,6-6.2,15.3-10.3,15.3s-2.2-1.1-2.2-3.9c0-5.9,3-13.6,9.6-13.6s2.3.2,3.2.4h0ZM114.9,48.2c-3.2-.6-6.6-.9-10.1-.9-12.5,0-18.2,9.9-18.2,20.7s2.3,8.9,6.7,8.9,9.6-5.5,11.8-9.5h.1c-1.6,4.5-2.3,6.6-2.9,9.8-1,5.1-4.1,7.1-9.4,7.1s-5.5-.6-7.8-1.7l-1.7,6.7c2.2.7,5,1.2,8.2,1.2,11.1,0,16.1-4.7,17.5-12.5l5.7-29.8"/>
  <path class="cls-1" d="M129.8,47.8h-7.1l-5.4,28.4h7.1l5.4-28.4h0ZM132.3,39.4c0-2.2-1.8-4.1-4.2-4.1s-4.8,2-4.9,4.6c0,2.2,1.7,4.2,4.2,4.2s4.8-2,4.9-4.7"/>
  <polyline class="cls-1" points="147.1 34.7 140 34.7 132 76.4 139.2 76.4 147.1 34.7"/>
  <path class="cls-1" d="M139,81.6l-6.2,1.5s4.1,10.4,12.3,16.9l1.4-7.3s-5.4-5.7-7.4-11.1"/>
  <polyline class="cls-1" points="37 58.8 35.9 64.7 50.4 64.7 51.5 58.8 37 58.8"/>
  <path class="cls-1" d="M143.9,26.7s10.1-10.9,27.8-13.7l-1,6.4s-11.1,1.5-20.7,10.4l-6-3.1"/>
  <path class="cls-1" d="M165.7,55c0,3-3.4,4.4-10,4.6,1-3.7,3.4-7.1,7.1-7.1s2.9.9,2.9,2.5h0ZM172.8,54c0-3.4-2.2-6.9-9.2-6.9s-16.1,8.1-16.1,19.9,2.9,9.6,10.1,9.6,7.5-.6,10.6-1.8v-5.6c-2.6,1.1-5.5,1.7-8.3,1.7-3.9,0-5.2-1-5.2-4.2s.1-1.6.2-2.2c11.1-.3,17.9-3.7,17.9-10.5"/>
</svg>