<?xml version="1.0" encoding="UTF-8"?>
<svg id="Ebene_1" data-name="Ebene 1" xmlns="http://www.w3.org/2000/svg" version="1.1" viewBox="0 0 193 193">
  <defs>
    <style>
      .cls-1 {
        fill: #fa3232;
      }

      .cls-1, .cls-2, .cls-3, .cls-4 {
        stroke-width: 0px;
      }

      .cls-2 {
        fill: #000;
      }

      .cls-3 {
        fill: #fff;
      }

      .cls-4 {
        fill: #ebebdf;
      }
    </style>
  </defs>
  <rect class="cls-4" x="1357.7" y="-10.6" width="4" height=".3"/>
  <g>
    <circle class="cls-1" cx="96.5" cy="96.5" r="96.5"/>
    <rect class="cls-2" x="114.2" y="111.5" width="56.8" height="56.8" transform="translate(314.2 242.2) rotate(166.3)"/>
    <path class="cls-1" d="M116.2,87.8h18.1c10,0,18.1,8.1,18.1,18.1h0c0,10-8.1,18.1-18.1,18.1h-18.1v-36.2h0Z" transform="translate(205.3 -49.7) rotate(76.3)"/>
    <g>
      <g>
        <rect class="cls-3" x="101.7" y="35.1" width="56.8" height="56.8" transform="translate(193.6 -66.6) rotate(90)"/>
        <path class="cls-3" d="M121,85.2h9.2c5.1,0,9.2,4.1,9.2,9.2h0c0,5.1-4.1,9.2-9.2,9.2h-9.2v-18.3h0Z" transform="translate(224.5 -35.8) rotate(90)"/>
      </g>
      <path class="cls-1" d="M76.1,45.4h18.1c10,0,18.1,8.1,18.1,18.1h0c0,10-8.1,18.1-18.1,18.1h-18.1v-36.2h0Z"/>
      <rect class="cls-3" x="34.9" y="35.1" width="56.8" height="56.8"/>
      <path class="cls-3" d="M85.1,54.4h9.2c5.1,0,9.2,4.1,9.2,9.2h0c0,5.1-4.1,9.2-9.2,9.2h-9.2v-18.3h0Z"/>
      <path class="cls-1" d="M45.2,81h18.1c10,0,18.1,8.1,18.1,18.1h0c0,10-8.1,18.1-18.1,18.1h-18.1v-36.2h0Z" transform="translate(-35.7 162.4) rotate(-90)"/>
      <rect class="cls-3" x="34.9" y="101.5" width="56.8" height="56.8" transform="translate(-66.6 193.3) rotate(-90)"/>
      <path class="cls-3" d="M54.2,89.9h9.2c5.1,0,9.2,4.1,9.2,9.2h0c0,5.1-4.1,9.2-9.2,9.2h-9.2v-18.3h0Z" transform="translate(-35.7 162.4) rotate(-90)"/>
      <path class="cls-1" d="M80.3,111h4.9c10,0,18.1,8.1,18.1,18.1h0c0,10-8.1,18.1-18.1,18.1h-4.9v-36.2h0Z" transform="translate(183.7 258.3) rotate(180)"/>
    </g>
    <path class="cls-2" d="M103.4,138.1h9.2c5.1,0,9.2,4.1,9.2,9.2h0c0,5.1-4.1,9.2-9.2,9.2h-9.2v-18.3h0Z" transform="translate(256.8 263.7) rotate(166.3)"/>
  </g>
</svg>