<?xml version="1.0" encoding="UTF-8" standalone="no"?>
<svg
   xmlns="http://www.w3.org/2000/svg"
   height="288"
   width="640"
   xml:space="preserve"
   viewBox="0 0 640 288.00002"
   y="0px"
   x="0px"
   id="Ebene_1"
   version="1.1">
<style
   id="style2"
   type="text/css">
	.st0{fill:#FFFFFF;}
	.st1{fill:#79B51C;}
</style>

<path
   style="stroke-width:1.91915"
   id="path6"
   d="M 560.33328,288 H 0 V 79.818788 C 0,35.880078 35.896648,0 79.855649,0 H 639.99695 V 207.98934 C 640.38086,252.11991 604.48422,288 560.33328,288"
   class="st0" />
<path
   style="stroke-width:1.91915"
   id="path8"
   d="M 560.33328,271.88273 H 15.932738 V 80.010659 c 0,-35.304467 28.602142,-64.085275 64.11487,-64.085275 H 624.44814 V 207.79747 c 0,35.49633 -28.60215,64.08526 -64.11486,64.08526 v 0"
   class="st1" />
<path
   style="stroke-width:1.91915"
   id="path10"
   d="M 560.33328,255.95735 H 32.057436 V 112.0533 H 608.32344 v 95.93604 c 0,26.67021 -21.49963,47.96801 -47.99016,47.96801 v 0"
   class="st0" />
<path
   style="stroke-width:1.91915"
   id="path12"
   d="m 143.97051,232.93272 v -98.04665 c 0,-3.83744 1.15177,-5.18055 4.79901,-5.18055 h 11.13373 c 1.91962,-0.38374 3.83923,0.76748 4.79902,2.49434 l 39.92782,72.14391 v -69.4577 c 0,-3.83744 1.15179,-5.18055 4.79904,-5.18055 h 9.02212 c 3.64726,0 4.99102,1.34311 4.99102,5.18055 v 98.04665 c 0,3.83744 -1.15179,5.18052 -4.99102,5.18052 h -10.74976 c -1.91961,0.19202 -3.83924,-0.76749 -4.79907,-2.68618 l -40.3117,-72.14392 v 69.45771 c 0,3.83741 -1.34374,5.18053 -4.99099,5.18053 h -8.83021 c -3.83919,0 -4.79901,-1.34312 -4.79901,-4.98866"
   class="st1" />
<path
   style="stroke-width:1.91915"
   id="path14"
   d="m 245.51775,232.93272 v -98.04665 c 0,-3.83744 1.15173,-5.18055 4.79898,-5.18055 h 55.66861 c 3.64724,0 4.99095,1.34311 4.99095,5.18055 v 7.48301 c 0,3.83744 -1.15174,5.18055 -4.99095,5.18055 h -41.46349 v 26.67021 h 34.74487 c 3.45529,0 4.79899,1.34312 4.79899,5.18056 v 7.483 c 0,3.83743 -1.15175,5.18055 -4.79899,5.18055 h -34.74487 v 28.01334 h 42.80722 c 3.64722,0 4.99097,1.3431 4.99097,5.18052 v 7.48304 c 0,3.83741 -1.15174,5.18053 -4.99097,5.18053 h -57.01234 c -3.64725,0 -4.79898,-1.34312 -4.79898,-4.98866"
   class="st1" />
<path
   style="stroke-width:1.91915"
   id="path16"
   d="m 329.40454,232.93272 v -98.04665 c 0,-3.83744 1.15175,-5.18055 4.79901,-5.18055 h 37.81626 c 19.58,0 33.01728,12.66356 33.01728,33.57762 0,15.73352 -6.9106,25.32712 -18.81216,28.9727 2.68743,2.30247 4.99098,5.18055 6.33469,8.44236 l 14.97292,32.23452 c 1.15177,2.87811 0.76784,5.18052 -2.8794,5.18052 h -9.98198 c -5.95076,0 -7.2945,-0.57562 -9.02215,-4.60491 l -11.32567,-25.90271 c -4.03117,-9.01802 -5.95078,-11.32046 -13.82117,-11.32046 h -12.09351 v 36.64756 c 0,3.83744 -1.15181,5.18052 -4.79903,5.18052 h -9.59805 c -3.64722,-0.1918 -4.60704,-1.53498 -4.60704,-5.18052 m 41.8474,-53.72419 c 8.63827,0 14.58904,-5.75616 14.58904,-15.92539 0,-10.36108 -5.75881,-15.73351 -14.58904,-15.73351 h -22.6513 v 31.6589 z"
   class="st1" />
<path
   style="stroke-width:1.91915"
   id="path18"
   d="m 421.3537,200.50636 v -33.38577 c 0,-24.36775 14.58901,-39.71754 40.69569,-39.71754 20.92372,0 33.20919,9.01799 38.20017,25.51901 1.15178,3.64557 0.38392,5.37241 -3.07138,6.52363 l -8.83019,2.87809 c -3.45529,1.15125 -4.79898,0.38373 -6.14275,-3.4537 -2.87936,-9.40174 -9.40606,-14.00665 -20.15585,-14.00665 -14.58899,0 -21.30765,7.67487 -21.30765,21.68152 v 33.76947 c 0,14.19856 6.91059,21.68157 21.30765,21.68157 14.39704,0 21.8835,-6.1399 21.8835,-17.26849 v -9.4017 h -20.34784 c -3.45528,0 -4.799,-1.34314 -4.799,-5.37245 v -7.29113 c 0,-4.02929 1.15176,-5.18055 4.799,-5.18055 h 33.97708 c 3.6472,0 4.99097,1.15126 4.99097,5.18055 v 20.91406 c 0,20.72217 -14.58901,36.07195 -40.31176,36.07195 -25.72274,0 -41.07959,-14.39042 -40.88764,-39.14187"
   class="st1" />
<path
   style="stroke-width:1.91915"
   id="path20"
   d="M 542.09698,232.93272 V 195.13389 L 507.928,135.07796 c -1.5357,-2.8781 -1.1518,-5.18055 2.49548,-5.18055 h 11.13373 c 5.75882,0 6.52664,0.76749 8.44625,4.60492 l 22.07549,42.5956 22.4594,-42.5956 c 1.91959,-3.83743 2.68745,-4.60492 8.44628,-4.60492 h 10.36587 c 3.45527,0 4.03115,2.30245 2.49549,5.18055 l -34.55291,60.43972 v 37.60688 c 0,3.83747 -1.1518,5.18055 -4.99101,5.18055 H 546.896 c -3.45529,-0.38373 -4.79902,-1.72685 -4.79902,-5.37239"
   class="st1" />
<path
   style="stroke-width:1.91915"
   id="path22"
   d="m 123.81464,208.18119 -8.8302,-2.87807 c -3.45529,-1.15121 -4.79901,-0.38371 -6.14272,3.45371 -2.87942,9.40175 -9.40608,14.00665 -20.155881,14.00665 -14.589014,0 -21.499597,-7.67488 -21.499597,-21.68155 v -11.32044 h 54.708788 c 3.64727,0 4.99099,-1.15123 4.99099,-5.18055 v -17.65223 c 0,-22.44903 -13.62923,-39.52566 -38.968024,-39.52566 -24.379006,0 -39.927824,14.58228 -39.927824,39.90941 v 33.38574 c 0,24.36775 14.589012,39.71751 40.695667,39.71751 20.923731,0 33.209191,-9.01797 38.200181,-25.51901 1.15176,-3.83742 0.38392,-5.56424 -3.07138,-6.71551 M 87.726034,145.24718 c 13.437256,0 20.539786,8.63423 20.539786,21.48966 v 5.18055 H 66.994282 v -4.98868 c 0,-14.00665 9.214112,-21.68153 20.731752,-21.68153"
   class="st1" />
<path
   style="stroke-width:1.91915"
   id="path24"
   d="M 47.990172,70.417053 V 57.369751 c 0,-10.361091 6.142745,-16.692869 17.084504,-16.692869 8.638227,0 14.013129,3.837441 15.932734,10.552963 0.575884,1.726851 0.191955,2.494339 -1.535684,3.069956 l -4.415095,1.343102 c -1.727648,0.575615 -2.30353,0.191865 -3.071373,-1.726848 -0.959803,-2.878082 -3.839214,-4.7968 -6.910582,-4.604929 -5.182941,0 -7.486468,2.494337 -7.486468,7.674883 v 13.239172 c 0,5.180545 2.303527,7.674885 7.486468,7.674885 5.182935,0 7.678425,-1.918724 7.678425,-5.564289 v -2.686211 h -7.102545 c -1.727646,0 -2.303531,-0.575618 -2.303531,-2.494337 v -3.645568 c 0,-1.918722 0.575885,-2.494338 2.303531,-2.494338 h 14.205093 c 1.919605,0 2.495488,0.575616 2.495488,2.494338 v 8.826116 c 0,8.442369 -6.142743,14.966019 -16.89254,14.966019 -10.749801,0 -17.468425,-6.715521 -17.468425,-16.884743 z"
   class="st0" />
<path
   style="stroke-width:1.91915"
   id="path26"
   d="M 91.565249,83.464358 V 44.130579 c 0,-1.918719 0.575883,-2.494336 2.495488,-2.494336 h 15.548833 c 8.44625,0 14.39704,5.372417 14.39704,14.390405 0,6.33178 -2.49549,10.169222 -7.10254,12.08794 0.76782,0.767492 1.53568,1.918719 1.91959,2.878082 l 5.95079,12.855429 c 0.57587,1.534978 0.38391,2.686212 -1.53569,2.686212 h -5.18294 c -2.87939,0 -3.64726,-0.383747 -4.60703,-2.302467 l -4.22315,-9.977349 c -1.34372,-3.261825 -1.91961,-4.029314 -4.79903,-4.029314 h -3.07137 v 13.814793 c 0,1.918719 -0.57588,2.494337 -2.303523,2.494337 h -5.18294 C 92.141132,85.958693 91.565249,85.383077 91.565249,83.464358 Z M 109.03367,61.207193 c 2.87941,-0.191864 5.18294,-2.878081 4.79902,-5.948034 -0.19195,-2.494336 -2.30354,-4.604931 -4.79902,-4.796801 h -7.67843 v 10.744835 z"
   class="st0" />
<path
   style="stroke-width:1.91915"
   id="path28"
   d="M 133.60463,83.464358 V 44.130579 c 0,-1.918719 0.57591,-2.494336 2.30355,-2.494336 h 23.22723 c 1.72765,0 2.30353,0.575617 2.30353,2.494336 v 3.837441 c 0,1.918723 -0.57588,2.494338 -2.30353,2.494338 h -15.74077 v 8.634244 h 12.6694 c 1.72765,0 2.30353,0.575614 2.30353,2.494335 v 4.029315 c 0,1.918721 -0.57588,2.494336 -2.30353,2.494336 h -12.86138 v 9.209862 h 16.12472 c 1.72766,0 2.3035,0.575616 2.3035,2.494338 v 4.029311 c 0,1.918723 -0.57584,2.494337 -2.3035,2.494337 h -23.22725 c -1.91959,-0.383743 -2.4955,-0.959359 -2.4955,-2.878078 z"
   class="st0" />
<path
   style="stroke-width:1.91915"
   id="path30"
   d="M 171.03696,83.464358 V 44.130579 c 0,-1.918719 0.5759,-2.494336 2.30354,-2.494336 h 23.03531 c 1.72764,0 2.3035,0.575617 2.3035,2.494336 v 3.837441 c 0,1.918723 -0.57586,2.494338 -2.3035,2.494338 h -15.7408 v 8.634244 h 12.86136 c 1.72764,0 2.30352,0.575614 2.30352,2.494335 v 4.029315 c 0,1.918721 -0.57588,2.494336 -2.30352,2.494336 h -12.86136 v 9.209862 h 16.1247 c 1.72765,0 2.30354,0.575616 2.30354,2.494338 v 4.029311 c 0,1.918723 -0.57589,2.494337 -2.30354,2.494337 h -23.61115 c -1.5357,-0.383743 -2.1116,-0.959359 -2.1116,-2.878078 z"
   class="st0" />
<path
   style="stroke-width:1.91915"
   id="path32"
   d="M 208.08539,83.464358 V 44.130579 c 0,-1.918719 0.57586,-2.494336 2.30353,-2.494336 h 5.9508 c 0.95979,-0.191865 1.91961,0.383745 2.30348,1.151231 l 10.55787,19.37908 c 1.91959,3.645571 3.2633,7.483012 4.4151,11.320452 h 0.57585 c -1.34369,-4.413058 -1.91958,-9.017985 -1.91958,-13.622917 v -15.73351 c 0,-1.918719 0.57589,-2.494336 2.30352,-2.494336 h 4.79905 c 1.72759,0 2.49546,0.575617 2.49546,2.494336 v 39.525649 c 0,1.91872 -0.57589,2.494336 -2.49546,2.494336 h -5.5669 c -0.95978,0.191866 -1.9196,-0.383742 -2.30351,-1.151231 L 221.1387,65.812125 c -1.91961,-3.645571 -3.45529,-7.674884 -4.60704,-11.704195 v 0 c 0.9598,4.604928 1.34374,9.209855 1.53568,13.81479 v 15.733508 c 0,1.91872 -0.57588,2.494336 -2.49548,2.494336 h -4.79903 c -2.11158,-0.191866 -2.68743,-0.767487 -2.68744,-2.686206 z"
   class="st0" />
<path
   style="stroke-width:1.91915"
   id="path34"
   d="M 269.5128,83.464358 V 44.130579 c 0,-1.918719 0.5759,-2.494336 2.30353,-2.494336 h 15.35684 c 8.83021,0 14.58906,5.564288 14.58906,15.157893 0,9.593605 -5.75885,14.966022 -14.58906,14.966022 h -7.87036 v 12.279816 c 0,1.918719 -0.57589,2.494337 -2.30354,2.494337 h -5.18294 c -1.53568,-0.575618 -2.30353,-1.151234 -2.30353,-3.069953 z m 17.27645,-21.10593 c 3.26334,0 5.18295,-2.302468 5.18295,-5.948036 0,-3.645569 -1.91961,-5.948035 -5.18295,-5.948035 h -7.2945 v 11.896071 z"
   class="st0" />
<path
   style="stroke-width:1.91915"
   id="path36"
   d="M 310.40043,83.464358 V 44.130579 c 0,-1.918719 0.57586,-2.494336 2.30351,-2.494336 h 5.18294 c 1.7277,0 2.30356,0.575617 2.30356,2.494336 V 77.13258 h 14.39703 c 1.72767,0 2.30351,0.575613 2.30351,2.494334 v 4.029314 c 0,1.91872 -0.57584,2.494336 -2.30351,2.494336 h -21.69154 c -1.72763,-0.191866 -2.4955,-0.767487 -2.4955,-2.686206 z"
   class="st0" />
<path
   style="stroke-width:1.91915"
   id="path38"
   d="m 343.80162,83.656228 13.62917,-40.101267 c 0.19211,-1.343101 1.53569,-2.302465 2.87944,-2.110589 v 0 h 5.37487 c 1.34372,-0.191866 2.68746,0.575616 2.87941,1.918719 l 13.62924,40.101267 c 0.57587,1.726848 0,2.494335 -1.72765,2.494335 h -4.99101 c -2.68743,0 -3.64724,-0.575616 -4.03114,-2.302465 l -1.72764,-6.139906 h -14.20512 l -1.72763,6.139906 c -0.57589,1.726849 -1.34371,2.302465 -4.03121,2.302465 h -4.60703 c -1.53569,0 -1.9196,-0.767487 -1.3437,-2.302465 z m 23.41921,-14.006662 -2.68746,-9.97735 c -0.76786,-2.87808 -1.34374,-5.756161 -1.72766,-8.634243 h -0.38394 c -0.3839,2.878082 -0.95979,5.756163 -1.72763,8.634243 l -2.49549,9.97735 z"
   class="st0" />
<path
   style="stroke-width:1.91915"
   id="path40"
   d="M 390.64,83.464358 V 44.130579 c 0,-1.918719 0.57591,-2.494336 2.49549,-2.494336 h 5.95081 c 0.9598,-0.191865 1.91958,0.383745 2.30349,1.151231 l 10.55787,19.37908 c 1.9196,3.645571 3.26331,7.483012 4.41507,11.320452 h 0.57587 c -1.3437,-4.413058 -1.91961,-9.017985 -1.91961,-13.622917 v -15.73351 c 0,-1.918719 0.57591,-2.494336 2.49552,-2.494336 h 4.79903 c 1.72765,0 2.49545,0.575617 2.49545,2.494336 v 39.525649 c 0,1.91872 -0.57585,2.494336 -2.49545,2.494336 h -5.75883 c -0.95981,0.191866 -1.9196,-0.383742 -2.30354,-1.151231 L 403.88529,65.812125 c -1.91959,-3.645571 -3.45531,-7.674884 -4.60704,-11.704195 h -0.38395 c 0.95979,4.604928 1.34374,9.209855 1.53568,13.81479 v 15.733508 c 0,1.91872 -0.57589,2.494336 -2.49547,2.494336 h -4.79902 C 391.21591,85.958698 390.64,85.383077 390.64,83.464358 Z"
   class="st0" />
<path
   style="stroke-width:1.91915"
   id="path42"
   d="M 434.79097,83.464358 V 44.130579 c 0,-1.918719 0.57587,-2.494336 2.4955,-2.494336 h 23.03527 c 1.9196,0 2.49545,0.575617 2.49545,2.494336 v 3.837441 c 0,1.918723 -0.57585,2.494338 -2.49545,2.494338 h -15.74078 v 8.634244 h 12.86135 c 1.72766,0 2.30354,0.575614 2.30354,2.494335 v 4.029315 c 0,1.918721 -0.57589,2.494336 -2.30354,2.494336 h -12.86135 v 9.209862 h 16.12471 c 1.72762,0 2.30352,0.575616 2.30352,2.494338 v 4.029311 c 0,1.918723 -0.5759,2.494337 -2.30352,2.494337 H 437.0945 c -1.72766,-0.383743 -2.30353,-0.959359 -2.30353,-2.878078 z"
   class="st0" />
<path
   style="stroke-width:1.91915"
   id="path44"
   d="m 481.43741,83.656228 v -33.19387 h -8.63823 c -1.72765,0 -2.30353,-0.575615 -2.30353,-2.494338 v -3.837441 c 0,-1.918719 0.57588,-2.494336 2.30353,-2.494336 h 27.06644 c 1.91963,0 2.49547,0.575617 2.49547,2.494336 v 3.837441 c 0,1.918723 -0.57584,2.494338 -2.49547,2.494338 h -8.63821 v 33.002 c 0,1.918719 -0.57589,2.494335 -2.30353,2.494335 h -4.99099 c -1.91959,0 -2.49548,-0.575616 -2.49548,-2.302465 z"
   class="st0" />
</svg>
