<?xml version="1.0" encoding="UTF-8"?>
<svg id="Ebene_1" data-name="Ebene 1" xmlns="http://www.w3.org/2000/svg" version="1.1" viewBox="0 0 193 193">
  <defs>
    <style>
      .cls-1 {
        fill: #e63a38;
      }

      .cls-1, .cls-2, .cls-3 {
        stroke-width: 0px;
      }

      .cls-2 {
        fill: #000;
      }

      .cls-3 {
        fill: #eaeade;
      }

      .cls-4 {
        fill: none;
        stroke: #fff;
        stroke-miterlimit: 10;
        stroke-width: 8px;
      }
    </style>
  </defs>
  <circle class="cls-3" cx="96.5" cy="96.5" r="96.5"/>
  <g>
    <rect class="cls-1" x="40.5" y="65.9" width="118.6" height="80.9"/>
    <polyline class="cls-1" points="74.1 124.4 104.1 166.1 124.7 127.8"/>
  </g>
  <polygon class="cls-2" points="98.4 7.9 105.3 21.7 120.5 23.9 109.5 34.6 112.1 49.8 98.4 42.6 84.8 49.8 87.4 34.6 76.4 23.9 91.6 21.7 98.4 7.9"/>
  <polygon class="cls-2" points="43.2 7.9 50 21.7 65.2 23.9 54.2 34.6 56.8 49.8 43.2 42.6 29.6 49.8 32.2 34.6 21.1 23.9 36.4 21.7 43.2 7.9"/>
  <polygon class="cls-2" points="153.7 7.9 160.5 21.7 175.8 23.9 164.7 34.6 167.3 49.8 153.7 42.6 140.1 49.8 142.7 34.6 131.7 23.9 146.9 21.7 153.7 7.9"/>
  <line class="cls-4" x1="52.7" y1="84.5" x2="146.8" y2="84.5"/>
  <line class="cls-4" x1="52.7" y1="105.1" x2="146.8" y2="105.1"/>
</svg>