<?xml version="1.0" encoding="UTF-8"?>
<svg id="Ebene_1" data-name="Ebene 1" xmlns="http://www.w3.org/2000/svg" version="1.1" viewBox="0 0 700 700">
  <defs>
    <style>
      .cls-1 {
        fill: #000;
      }

      .cls-1, .cls-2 {
        stroke-width: 0px;
      }

      .cls-2 {
        fill: #fff;
      }
    </style>
  </defs>
  <g>
    <path class="cls-1" d="M588,477.3c-45.8,84.6-135.3,142.1-238,142.1s-192.2-57.5-238-142.1c-20.7-38.2-32.5-82-32.5-128.4s11.8-90.2,32.5-128.4c45.8-84.6,135.3-142.1,238-142.1s192.2,57.5,238,142.1c20.7,38.2,32.5,82,32.5,128.4s-11.8,90.2-32.5,128.4M697.1,332.5c4.5-9.1,3.2-23.1-2.9-31.2-6.1-8.1-8.8-22.7-6-32.4,2.7-9.7-1.1-23.2-8.6-30-4.7-4.3-8.5-11.3-10.5-18.4-1.2-4.3-1.7-8.5-1.4-12.3.9-10.1-5.4-22.7-13.9-28-8.6-5.3-16.4-17.9-17.3-28-1-10-9.5-21.2-18.9-24.9-9.4-3.7-19.4-14.6-22.2-24.3-2.8-9.7-13.2-19.2-23.1-21.1-9.9-1.9-21.8-10.8-26.3-19.9-4.5-9.1-16.5-16.4-26.6-16.5-10.1,0-23.3-6.6-29.5-14.7-6.1-8-19.2-13.1-29.2-11.3-9.9,1.9-24.2-2.2-31.6-9-7.5-6.8-21.3-9.4-30.8-5.7-9.4,3.6-24.2,2.6-32.8-2.7-1.7-1-3.6-2.2-5.6-2.2h-20.1c-2,0-3.9,1.1-5.6,2.2-8.6,5.3-23.3,6.5-32.8,2.8-9.5-3.6-23.3-1.1-30.8,5.7-7.5,6.7-21.7,10.8-31.6,8.9-9.9-1.8-23,3.2-29.1,11.2-6.1,8-19.4,14.7-29.5,14.7-10.1,0-22.1,7.4-26.6,16.5-4.5,9.1-16.3,18-26.3,19.9-9.9,1.9-20.3,11.3-23.1,21.1-2.8,9.7-12.8,20.6-22.2,24.3-9.4,3.7-17.9,14.9-18.8,24.9-1,10.1-8.8,22.7-17.3,28-8.6,5.4-14.9,17.9-13.9,28,.4,3.7-.2,8-1.4,12.3-2,7.1-5.9,14.1-10.5,18.4-7.5,6.9-11.3,20.4-8.6,30,2.7,9.7,0,24.3-6.1,32.4-6.1,8.1-7.3,22.1-2.9,31.2,4.5,9,4.5,23.8,0,32.9-4.5,9.1-3.2,23.1,2.9,31.1,6.1,8.1,8.8,22.7,6.1,32.4-2.7,9.7,1.1,23.2,8.6,30,4.7,4.3,8.5,11.3,10.5,18.4,1.2,4.2,1.7,8.5,1.4,12.3-.9,10.1,5.4,22.7,13.9,28,8.6,5.3,16.4,18,17.3,28,.9,10.1,9.4,21.3,18.8,25,9.4,3.7,19.4,14.6,22.2,24.4,2.8,9.7,13.2,19.2,23.1,21,9.9,1.9,21.8,10.8,26.3,19.9,4.5,9.1,16.5,16.4,26.6,16.5,10.1,0,23.4,6.6,29.5,14.6,6.1,8,19.2,13.2,29.1,11.3,9.9-1.8,24.2,2.2,31.6,9,7.5,6.8,21.3,9.4,30.8,5.7,9.4-3.6,24.2-1.5,32.8,3.8,1.7,1,3.6.3,5.6,3.3h20.1c2-2.9,3.9-2.2,5.6-3.3,8.6-5.3,23.4-7,32.8-3.4,9.5,3.6,23.3.8,30.8-5.9,7.5-6.8,21.7-10.9,31.6-9.1,9.9,1.9,23-3.3,29.2-11.3,6.1-8,19.4-14.6,29.5-14.6,10.1,0,22.1-7.4,26.6-16.5,4.5-9.1,16.3-18,26.3-19.9,9.9-1.9,20.3-11.3,23.1-21,2.8-9.7,12.8-20.7,22.2-24.4,9.4-3.7,17.9-14.9,18.9-25,.9-10,8.7-22.6,17.3-28,8.6-5.4,14.9-17.9,13.9-28-.3-3.7.2-8,1.4-12.3,2-7.1,5.8-14.2,10.5-18.4,7.5-6.8,11.3-20.3,8.6-30-2.8-9.8,0-24.3,6-32.4,6.1-8,7.4-22,2.9-31.1-4.5-9.1-4.5-23.9,0-32.9"/>
    <path class="cls-2" d="M135.7,220.6c43.6-73.5,123.3-121.3,214.2-121.3s170.6,47.8,214.2,121.3H135.7ZM349.9,597.8c-90.9,0-170.6-47.8-214.2-121.3h428.4c-43.6,73.5-123.3,121.3-214.2,121.3M588,220.5c-45.8-84.6-135.3-142.1-238-142.1s-192.2,57.5-238,142.1c-20.7,38.2-32.5,82-32.5,128.4s11.8,90.2,32.5,128.4c45.8,84.6,135.3,142.1,238,142.1s192.2-57.5,238-142.1c20.7-38.2,32.5-82,32.5-128.4s-11.8-90.2-32.5-128.4"/>
    <path class="cls-1" d="M564.2,220.6H135.7c43.6-73.5,123.3-121.3,214.2-121.3s170.6,47.8,214.2,121.3"/>
    <path class="cls-1" d="M564.2,476.5c-43.6,73.5-123.3,121.3-214.2,121.3s-170.6-47.8-214.2-121.3h428.4Z"/>
  </g>
  <g>
    <path class="cls-1" d="M179.8,373.2h-24.4l-5.5-35c-1.5-9.3-3.7-28.9-4.1-31.6-.3,2.7-2.9,22.6-4.2,31.6l-5.4,35h-24.5l-12.8-76.8h20.1l2.9,37.2c.8,10.4,1.9,26.6,2.1,30.4.2-2,2.5-21.3,3.8-30.4l5.5-37.2h25l5.5,37.2c.8,5.5,2.4,19.1,3.7,30.4.9-11.4,2-25,2.3-30.4l2.6-37.2h20.1l-12.8,76.8Z"/>
    <path class="cls-1" d="M203.6,373.2v-76.8h18.8v76.8h-18.8Z"/>
    <path class="cls-1" d="M240,373.2v-76.8h18.8v76.8h-18.8Z"/>
    <path class="cls-1" d="M276.3,373.2v-76.8h18.8v76.8h-18.8Z"/>
    <path class="cls-1" d="M385.3,373.2v-76.8h18.8v76.8h-18.8Z"/>
    <path class="cls-1" d="M421.6,373.2v-76.8h18.8v76.8h-18.8Z"/>
    <path class="cls-1" d="M457.9,373.2v-76.8h18.8v76.8h-18.8Z"/>
    <path class="cls-1" d="M494.3,373.2v-76.8h18.8v76.8h-18.8Z"/>
    <path class="cls-1" d="M563.7,373.2l-3.6-16.1c-1.8-7.8-4.2-12.2-6-14.2l-4.9.4v29.8h-18.5v-76.8h22.7c16.5,0,29.8,3.1,29.8,22.2s-5,17.8-13.1,20.7c3.1,2,6.1,7.4,8.3,14.7l5.8,19.2h-20.5ZM552.6,309.7h-3.4v21.8c10.1-1.1,15.5-2.6,15.5-12.8s-3-9-12.1-9Z"/>
  </g>
  <g>
    <path class="cls-1" d="M269.8,395.6c0,1.6-.2,2.9-.7,4s-1.1,1.9-2,2.5c-.9.6-1.9,1.1-3.2,1.4-1.3.3-2.7.4-4.3.5v7.2h-4.7v-23.6h5.8c1.4,0,2.6.1,3.7.3,1.1.2,2.1.6,2.9,1.2.8.6,1.4,1.4,1.8,2.5.4,1.1.6,2.4.6,4.2ZM265.1,395.6c0-1-.1-1.8-.3-2.4-.2-.6-.5-1-.8-1.3-.3-.3-.7-.5-1.2-.6-.5,0-1-.1-1.5-.1h-1.6v9.5c.9,0,1.6,0,2.3-.2s1.2-.4,1.7-.7c.5-.3.8-.8,1-1.5.2-.6.4-1.5.4-2.6Z"/>
    <path class="cls-1" d="M283.1,411.1l-1-4.6h-6.6l-1,4.6h-5l6.3-23.6h5.9l6.3,23.6h-5ZM280,397c-.2-.7-.3-1.4-.5-2.2s-.3-1.5-.4-2.1c-.1-.6-.3-1.4-.4-2.2-.2.8-.3,1.5-.4,2.2s-.3,1.3-.4,2.1-.3,1.5-.5,2.2l-1.2,5.9h5.1l-1.2-5.9Z"/>
    <path class="cls-1" d="M300.9,411.1l-1.5-5.4c-.3-1.1-.6-2-1-2.7s-.7-1.3-1-1.6l-1.9.2v9.5h-4.7v-23.6h6.5c1.3,0,2.4,0,3.5.3s2,.5,2.8,1c.8.5,1.4,1.2,1.8,2,.4.9.6,2,.6,3.4s-.4,3.3-1.2,4.3c-.8,1-1.8,1.7-3.1,2.1.4.3.9.8,1.3,1.5.4.7.8,1.4,1,2.3l2.3,6.8h-5.4ZM301.2,394.2c0-1.1-.3-1.9-1-2.4-.7-.4-1.7-.7-3.2-.7h-1.5v7.1c.8,0,1.6-.2,2.3-.3.7-.1,1.3-.3,1.8-.6.5-.3.9-.7,1.2-1.1.3-.5.4-1.2.4-2.1Z"/>
    <path class="cls-1" d="M322.7,391.5h-5.2v19.6h-4.7v-19.6h-5.7v-4.1h16.2l-.5,4.1Z"/>
    <path class="cls-1" d="M336.9,411.1l-4.7-9.5c-.4-.7-.7-1.5-1.1-2.3-.3-.8-.7-1.6-.9-2.3-.3-.7-.6-1.5-.9-2.4.1,1.1.2,2,.3,2.8,0,.8.1,1.6.2,2.5,0,.9,0,1.7,0,2.5v8.7h-4.7v-23.6h4.5l4.3,8.7c.4.9.8,1.7,1.2,2.6.4.9.7,1.7.9,2.4.3.7.6,1.5.8,2.4-.1-1.1-.2-2.1-.3-2.9,0-.8-.1-1.7-.2-2.5,0-.9,0-1.7,0-2.3v-8.2h4.7v23.6h-4.2Z"/>
    <path class="cls-1" d="M359.5,391.5h-8.3v5.1h7.1v3.6h-7.1v6.8h8.4v4h-13.2v-23.6h13.3l-.3,4Z"/>
    <path class="cls-1" d="M373.4,411.1l-1.4-5.4c-.3-1.1-.6-2-1-2.7-.4-.7-.7-1.3-1-1.6l-1.9.2v9.5h-4.7v-23.6h6.5c1.3,0,2.4,0,3.5.3,1.1.2,2,.5,2.8,1,.8.5,1.4,1.2,1.8,2s.6,2,.6,3.4-.4,3.3-1.2,4.3c-.8,1-1.8,1.7-3.1,2.1.5.3.9.8,1.3,1.5s.8,1.4,1,2.3l2.3,6.8h-5.4ZM373.7,394.2c0-1.1-.3-1.9-1-2.4-.7-.4-1.7-.7-3.2-.7h-1.5v7.1c.8,0,1.6-.2,2.3-.3.7-.1,1.3-.3,1.8-.6.5-.3.9-.7,1.2-1.1.3-.5.4-1.2.4-2.1Z"/>
    <path class="cls-1" d="M408.4,399.3c0,2.5-.2,4.6-.7,6.1-.5,1.5-1.2,2.7-2.1,3.6-.9.8-2.1,1.4-3.4,1.7-1.3.3-2.8.4-4.5.4h-5.1v-23.6h5.1c1.6,0,3.1.1,4.5.4,1.3.3,2.5.8,3.4,1.7.9.8,1.6,2,2.1,3.6.5,1.5.7,3.6.7,6.2ZM403.7,399.3c0-1.7-.1-3.1-.3-4.2-.2-1.1-.6-1.9-1-2.5-.4-.6-.9-1-1.5-1.2s-1.3-.3-2-.3h-1.5v16.3h1.2c.8,0,1.5,0,2.2-.3s1.2-.6,1.6-1.1c.5-.6.8-1.4,1-2.5s.4-2.5.4-4.2Z"/>
    <path class="cls-1" d="M425.8,391.5h-8.3v5.1h7.1v3.6h-7.1v6.8h8.4v4h-13.2v-23.6h13.3l-.3,4Z"/>
    <path class="cls-1" d="M439.7,411.1l-1.4-5.4c-.3-1.1-.6-2-1-2.7-.4-.7-.7-1.3-1-1.6l-1.9.2v9.5h-4.7v-23.6h6.5c1.3,0,2.4,0,3.5.3,1.1.2,2,.5,2.8,1,.8.5,1.4,1.2,1.8,2s.6,2,.6,3.4-.4,3.3-1.2,4.3c-.8,1-1.8,1.7-3.1,2.1.5.3.9.8,1.3,1.5s.8,1.4,1,2.3l2.3,6.8h-5.4ZM440,394.2c0-1.1-.3-1.9-1-2.4-.7-.4-1.7-.7-3.2-.7h-1.5v7.1c.8,0,1.6-.2,2.3-.3.7-.1,1.3-.3,1.8-.6.5-.3.9-.7,1.2-1.1.3-.5.4-1.2.4-2.1Z"/>
  </g>
  <g>
    <path class="cls-1" d="M181.2,448.6v-23.6h4.7v23.6h-4.7ZM192.2,448.9l-5.9-13.2,5.4-10.8h5.3l-6.1,10.6,6.4,13-5.2.3Z"/>
    <path class="cls-1" d="M215.2,436.8c0,1.9-.1,3.5-.4,4.9-.2,1.4-.6,2.5-1,3.4-.4.9-.9,1.6-1.5,2.1s-1.2.9-1.8,1.2c-.6.3-1.3.4-1.9.5-.7,0-1.3.1-1.9.1s-1.2,0-1.9-.1c-.7,0-1.3-.2-1.9-.5-.6-.3-1.2-.7-1.8-1.2-.6-.5-1-1.2-1.5-2.1-.4-.9-.8-2-1-3.4-.2-1.3-.4-3-.4-4.9s.1-3.5.4-4.9c.3-1.4.6-2.5,1-3.4.4-.9.9-1.6,1.5-2.1.6-.5,1.2-.9,1.8-1.2.6-.3,1.3-.4,1.9-.5.6,0,1.2-.1,1.8-.1s1.2,0,1.8.1c.6,0,1.3.3,1.9.5.6.3,1.2.7,1.8,1.2.6.5,1.1,1.2,1.5,2.1.4.9.8,2,1,3.4.3,1.3.4,3,.4,4.8ZM210.5,436.8c0-1.8,0-3.2-.3-4.4s-.4-2-.7-2.7-.7-1.1-1.2-1.3c-.5-.2-1-.4-1.5-.4s-1.1.1-1.6.4c-.5.2-.8.7-1.2,1.3-.3.6-.6,1.5-.7,2.7s-.3,2.6-.3,4.4.1,3.3.3,4.5.5,2,.8,2.7c.3.6.7,1.1,1.2,1.3.5.2.9.3,1.4.3s1-.1,1.5-.3c.5-.2.8-.6,1.2-1.3.3-.6.6-1.5.8-2.7.2-1.1.3-2.6.3-4.5Z"/>
    <path class="cls-1" d="M235.7,448.6v-9c-.1-.8-.1-1.6,0-2.5,0-.8,0-1.6.1-2.3,0-.7.1-1.5.2-2.3-.3.7-.6,1.3-.8,1.9-.3.5-.6,1.1-.9,1.8s-.7,1.3-1,2l-3.4,6-3.4-6c-.4-.7-.7-1.3-1.1-2s-.6-1.3-.9-1.8c-.2-.5-.5-1.1-.8-1.8,0,.8.2,1.5.2,2.2,0,.7,0,1.4.1,2.3s0,1.7,0,2.6v9h-4.8l.8-23.6h3.7l6.1,11.9,6.2-11.9h3.6l.8,23.6h-4.7Z"/>
    <path class="cls-1" d="M262,448.6v-9c-.1-.8-.1-1.6,0-2.5,0-.8,0-1.6.1-2.3,0-.7.1-1.5.2-2.3-.3.7-.6,1.3-.8,1.9-.3.5-.6,1.1-.9,1.8s-.7,1.3-1,2l-3.4,6-3.4-6c-.4-.7-.7-1.3-1.1-2s-.6-1.3-.9-1.8c-.2-.5-.5-1.1-.8-1.8,0,.8.2,1.5.2,2.2,0,.7,0,1.4.1,2.3s0,1.7,0,2.6v9h-4.8l.8-23.6h3.7l6.1,11.9,6.2-11.9h3.6l.8,23.6h-4.7Z"/>
    <path class="cls-1" d="M287.1,441.3c0,1.2-.1,2.3-.4,3.2-.3.9-.7,1.7-1.3,2.4-.6.7-1.4,1.1-2.4,1.5-1,.3-2.2.5-3.6.5s-2.7-.2-3.7-.5c-1-.3-1.8-.8-2.4-1.5s-1-1.4-1.2-2.4-.4-2.1-.4-3.3v-16.3h4.7v16.2c0,1.5.2,2.5.7,3.1.4.6,1.2.9,2.3.9s1.8-.3,2.2-.9c.5-.6.7-1.6.7-3.1v-16.2h4.7v16.3Z"/>
    <path class="cls-1" d="M304,448.6l-4.7-9.5c-.4-.7-.7-1.5-1.1-2.3-.3-.8-.7-1.6-.9-2.3-.3-.7-.6-1.5-.9-2.4.1,1.1.2,2,.3,2.8,0,.8.1,1.6.2,2.5,0,.9,0,1.7,0,2.5v8.7h-4.7v-23.6h4.5l4.3,8.7c.4.9.8,1.7,1.2,2.6.4.9.7,1.7.9,2.4.3.7.6,1.5.8,2.4-.1-1.1-.2-2.1-.3-2.9,0-.8-.1-1.7-.2-2.5,0-.9,0-1.7,0-2.3v-8.2h4.7v23.6h-4.2Z"/>
    <path class="cls-1" d="M324.5,448.6l-1-4.6h-6.6l-1,4.6h-5l6.3-23.6h5.9l6.3,23.6h-5ZM321.5,434.5c-.2-.7-.3-1.4-.5-2.2s-.3-1.5-.4-2.1c-.1-.6-.3-1.4-.4-2.2-.2.8-.3,1.5-.4,2.2s-.3,1.3-.4,2.1-.3,1.5-.5,2.2l-1.2,5.9h5.1l-1.2-5.9Z"/>
    <path class="cls-1" d="M343.7,448.6h-11.5v-23.6h4.7v19.6h7.2l-.4,4Z"/>
    <path class="cls-1" d="M367.6,448.6h-6.4l-1.9-11.5c0-.5-.2-1.1-.3-1.9-.1-.8-.3-1.7-.4-2.5-.1-.9-.3-1.7-.4-2.5s-.2-1.5-.3-2c0-.5-.1-.7-.1-.8,0,0,0,.3-.1.8,0,.5-.2,1.1-.3,2-.1.8-.2,1.7-.4,2.5-.1.9-.3,1.7-.4,2.5-.1.8-.2,1.5-.3,1.9l-1.9,11.5h-6.4l-3.9-23.6h5.3l1.1,11.8c0,.6.1,1.3.2,2.1,0,.8.1,1.6.2,2.4,0,.8.1,1.6.2,2.3,0,.7,0,1.3.1,1.7,0,.4,0,.6,0,.7.2-1.3.3-2.5.4-3.5.1-1,.3-2,.4-3,.1-1,.3-2,.4-2.7l2-11.8h6.7l2,11.8c0,.5.2,1.2.3,2,.1.8.2,1.6.3,2.4.1.8.2,1.6.3,2.3,0,.7.2,1.3.2,1.8,0,.4,0,.7,0,.7.1-1.4.2-2.6.3-3.6,0-1,.2-2,.3-3,0-1,.2-1.9.2-2.5l1-11.8h5.3l-3.9,23.6Z"/>
    <path class="cls-1" d="M374.5,448.6v-23.6h4.8v23.6h-4.8Z"/>
    <path class="cls-1" d="M394.9,448.6l-1.4-5.4c-.3-1.1-.6-2-1-2.7-.4-.7-.7-1.3-1-1.6l-1.9.2v9.5h-4.7v-23.6h6.5c1.3,0,2.4,0,3.5.3,1.1.2,2,.5,2.8,1,.8.5,1.4,1.2,1.8,2s.6,2,.6,3.4-.4,3.3-1.2,4.3c-.8,1-1.8,1.7-3.1,2.1.5.3.9.8,1.3,1.5s.8,1.4,1,2.3l2.3,6.8h-5.4ZM395.2,431.8c0-1.1-.3-1.9-1-2.4-.7-.4-1.7-.7-3.2-.7h-1.5v7.1c.8,0,1.6-.2,2.3-.3.7-.1,1.3-.3,1.8-.6.5-.3.9-.7,1.2-1.1.3-.5.4-1.2.4-2.1Z"/>
    <path class="cls-1" d="M416.6,429h-5.2v19.6h-4.7v-19.6h-5.7v-4.1h16.2l-.5,4.1Z"/>
    <path class="cls-1" d="M431.2,442c0,1.4-.2,2.6-.7,3.5-.5.9-1.1,1.6-1.9,2.1-.8.5-1.6.8-2.5,1-.9.2-1.8.3-2.6.3s-1.5,0-2.1-.1c-.7,0-1.3-.2-1.8-.3-.5-.1-1.1-.2-1.7-.4v-4.1c.7.2,1.3.4,1.9.5s1.1.3,1.6.4c.6.1,1,.2,1.4.2s.9,0,1.4-.1c.4,0,.8-.2,1.2-.5.3-.2.6-.5.8-.9.2-.4.3-.8.3-1.4s0-1-.2-1.3-.3-.7-.6-.9c-.2-.3-.5-.5-.9-.7-.3-.2-.7-.4-1.1-.7l-2.1-1.2c-.5-.3-1-.6-1.4-1-.5-.4-.9-.8-1.2-1.3-.4-.5-.6-1.1-.8-1.7-.2-.6-.3-1.4-.3-2.2,0-1.3.2-2.3.7-3.2.5-.8,1.1-1.5,1.8-2,.7-.5,1.5-.8,2.4-1,.9-.2,1.7-.3,2.5-.3s2,0,2.8.2c.8.2,1.4.3,1.7.4.4.1.5.2.6.2v3.8c-.6-.2-1.1-.4-1.6-.5s-1-.2-1.5-.3c-.6-.1-1.1-.2-1.7-.2-.9,0-1.6.2-2.2.5s-.9,1-.9,2,0,.8.2,1.1c.1.3.3.6.5.8.2.2.5.4.8.6s.6.4,1,.6l2,1.1c.5.3,1.1.6,1.6,1,.5.4,1,.8,1.4,1.4.4.5.7,1.2,1,1.9.2.7.4,1.6.4,2.6Z"/>
    <path class="cls-1" d="M447,448s-.2.1-.6.2-.9.3-1.6.4c-.8.2-1.6.2-2.6.2s-2-.1-3-.4c-1-.3-1.9-.8-2.7-1.6-.8-.8-1.5-2.1-2-3.7s-.8-3.8-.8-6.5.1-3.4.4-4.7c.3-1.3.7-2.4,1.1-3.3.5-.9,1-1.6,1.6-2.2.6-.6,1.3-1,1.9-1.3s1.3-.5,1.9-.6c.6,0,1.2-.1,1.8-.1.9,0,1.6,0,2.3.2s1.2.3,1.5.4.5.2.5.2v3.8c-.5-.2-1-.3-1.4-.4-.4-.1-.9-.2-1.3-.3-.5,0-1-.1-1.4-.1s-1.1.1-1.7.3c-.5.2-1,.6-1.4,1.2-.4.6-.7,1.4-.9,2.5s-.4,2.5-.4,4.2,0,2.9.3,3.9c.2,1,.4,1.9.8,2.5s.8,1.1,1.2,1.4c.5.3,1.1.4,1.7.4s1.1,0,1.6-.1c.5,0,1-.2,1.4-.3.4-.1.9-.2,1.4-.4v3.8Z"/>
    <path class="cls-1" d="M461.8,448.6v-10.9h-6.7v10.9h-4.7v-23.6h4.7v9.1h6.7v-9.1h4.7v23.6h-4.7Z"/>
    <path class="cls-1" d="M482.8,448.6l-1-4.6h-6.6l-1,4.6h-5l6.3-23.6h5.9l6.3,23.6h-5ZM479.8,434.5c-.2-.7-.3-1.4-.5-2.2-.2-.8-.3-1.5-.4-2.1-.1-.6-.3-1.4-.4-2.2-.2.8-.3,1.5-.4,2.2-.1.6-.3,1.3-.4,2.1-.2.8-.3,1.5-.5,2.2l-1.2,5.9h5.1l-1.2-5.9Z"/>
    <path class="cls-1" d="M503.2,429h-8v5.1h7.1v3.6h-7.1v10.9h-4.7v-23.6h13.2l-.4,4.1Z"/>
    <path class="cls-1" d="M520,429h-5.2v19.6h-4.7v-19.6h-5.7v-4.1h16.2l-.5,4.1Z"/>
  </g>
  <path class="cls-1" d="M320.1,296.6c-4.7,0-9.4,1.6-13,4.6-3.6,3-6.2,7.2-7.2,11.9-.7,3.5-.5,7.2.4,10.7.9,3.5,2.4,6.8,4.3,9.8,3.8,6.1,9,11.1,14,16.2,7.5,7.6,14.6,15.6,21.4,23.9,6.8-8.3,13.9-16.3,21.4-23.9,5-5.1,10.2-10.1,14-16.2,1.9-3,3.4-6.3,4.3-9.8.9-3.5,1.1-7.2.4-10.7-.9-4.6-3.5-8.9-7.2-11.9-3.6-3-8.3-4.6-13-4.6-4.7,0-9.3,1.8-12.9,4.8-3.6,3-6.1,7.4-6.9,12-.9-4.7-3.4-9-6.9-12-3.6-3-8.3-4.8-12.9-4.8"/>
</svg>