<?xml version="1.0" encoding="UTF-8"?>
<svg xmlns="http://www.w3.org/2000/svg" xmlns:svg="http://www.w3.org/2000/svg" version="1.1" viewBox="0 0 174 58.1">
  <defs>
    <style>
      .cls-1 {
        fill: #024083;
      }

      .cls-2 {
        fill: #e8585d;
      }
    </style>
  </defs>
  <!-- Generator: Adobe Illustrator 28.6.0, SVG Export Plug-In . SVG Version: 1.2.0 Build 709)  -->
  <g>
    <g id="svg2211">
      <path id="text2220" class="cls-1" d="M7.7,26.6h1.3c1.6,0,2.7-.2,3.3-.5.6-.4.9-1,.9-1.8,0-.9-.3-1.5-.8-1.9-.5-.4-1.6-.5-3.2-.5h-1.4v4.8M1.7,40.8v-23.6h6.5c2.7,0,4.5,0,5.6.3,1.1.2,2,.5,2.7.9.9.5,1.5,1.1,2,1.9.5.8.7,1.7.7,2.8,0,1.3-.3,2.4-1,3.2-.7.8-1.8,1.4-3.3,1.8,1.7.1,3,.7,3.9,1.8.9,1,1.4,2.4,1.4,4.2,0,1.3-.3,2.4-.8,3.3-.5,1-1.3,1.7-2.3,2.2-.8.4-1.8.7-3,.9-1.2.2-3.1.3-5.8.3H1.7M7.7,35.9h2.3c1.5,0,2.6-.2,3.2-.6.6-.4,1-1,1-1.9,0-1-.3-1.7-.9-2.1-.6-.4-1.7-.6-3.2-.6h-2.4v5.1M25.1,33.1c1,1.1,1.9,1.9,2.8,2.4.9.5,1.9.8,2.8.8.9,0,1.6-.2,2.1-.7.6-.5.8-1,.8-1.8,0-.8-.2-1.4-.7-1.8-.5-.4-1.6-.9-3.2-1.3-2.3-.6-3.9-1.4-4.9-2.4-1-1-1.4-2.4-1.4-4.1s.8-4.1,2.3-5.5c1.5-1.4,3.5-2.1,5.9-2.1,1.3,0,2.5.2,3.7.5,1.2.3,2.3.9,3.3,1.6l-2,4.6c-.7-.6-1.5-1.1-2.3-1.4-.8-.3-1.5-.5-2.3-.5-.8,0-1.4.2-1.9.6-.5.4-.7.8-.7,1.4,0,.6.2,1.1.6,1.4.4.4,1.3.7,2.5,1h.3c2.6.8,4.3,1.6,5.2,2.4.6.6,1,1.3,1.3,2.1.3.8.4,1.7.4,2.7,0,2.5-.8,4.5-2.5,6-1.6,1.5-3.8,2.3-6.6,2.3s-3.1-.3-4.5-.8c-1.3-.6-2.6-1.4-3.9-2.6l2.9-4.8M52.4,40.8v-23.6h12.4v2.6h-9.6v6.8h9.6v2.6h-9.6v9h9.6v2.6h-12.4M69.6,40.8v-24.5l17.3,18.9v-17.9h2.7v24.5l-17.3-18.6v17.7h-2.7M95.2,40.8v-23.6h12.4v2.6h-9.6v6.8h9.6v2.6h-9.6v9h9.6v2.6h-12.4M112.4,40.8v-23.6h5.5c1.6,0,2.7,0,3.5.3.7.2,1.4.5,1.9.9.7.5,1.2,1.3,1.6,2.2.4.9.6,1.9.6,3,0,1.9-.5,3.4-1.6,4.4-1.1,1-2.7,1.5-4.7,1.5h-.5l9,11.2h-3.6l-8.6-11.2h-.4v11.2h-2.7M115.1,19.5v7.9h2.1c2.2,0,3.7-.3,4.4-.8.7-.6,1.1-1.6,1.1-3s-.4-2.6-1.1-3.2c-.8-.6-2.2-.9-4.4-.9h-2.1M143,28.6h9.7v.8c0,3.7-1.1,6.6-3.2,8.8-2.1,2.1-5,3.2-8.6,3.2s-2.2-.1-3.2-.4c-1-.2-1.9-.6-2.8-1-1.9-1.1-3.4-2.5-4.5-4.4-1.1-1.9-1.6-4-1.6-6.4s.3-3.7.9-5.3c.6-1.6,1.6-3,2.9-4.2,1.1-1,2.3-1.8,3.7-2.3,1.4-.5,3-.8,4.7-.8,2.3,0,4.2.4,5.9,1.2,1.7.8,3,2.1,4.1,3.7l-2.4,1.9c-.8-1.4-1.9-2.5-3.2-3.2-1.3-.7-2.7-1.1-4.4-1.1-2.7,0-5,.9-6.7,2.8-1.7,1.8-2.6,4.3-2.6,7.3s.9,5.1,2.6,6.9c1.7,1.8,4,2.7,6.6,2.7s4.3-.7,5.9-2.1c1.6-1.4,2.5-3.3,2.6-5.6h-6.7v-2.5M161.5,40.8v-10.8l-8-12.8h3.2l6.2,10.2,6.1-10.2h3.2l-8,12.8v10.8h-2.8"/>
      <rect id="rect2170" class="cls-2" x="44.3" y="1.6" width="1.9" height="54.9"/>
    </g>
  </g>
</svg>